# xmcd
#
# Track frame offsets:
#	182
#	5832
#	15605
#	27002
#	36085
#	47190
#	61017
#	71095
#	81290
#	98375
#	110052
#	122467
#	132597
#	140987
#	152520
#
# Disc length: 2176 seconds
#
# Revision: 1
# Processed by: cddbd v1.5.1PL0 Copyright (c) Steve Scherf et al.
# Submitted via: audiograbber 1.82.01
#
DISCID=c7087e0f
DTITLE=Willie Nelson - Broken Promises
DYEAR=1900
DGENRE=Country
TTITLE0=Ghost
TTITLE1=Let's Petend
TTITLE2=I'm Gonna Lose a Lot of Teardrops
TTITLE3=Waiting Time
TTITLE4=Go Away
TTITLE5=No Tomorrow in Sight
TTITLE6=A new Way to Cry
TTITLE7=Broken Promises
TTITLE8=I let my mind Wonder
TTITLE9=December Days
TTITLE10=I can't find the Time
TTITLE11=I didn't sleep a wink
TTITLE12=You wouldn't cross the Street to say goodbye
TTITLE13=Suffering in Silence
TTITLE14=I feel sorry for him
EXTD=
EXTT0=
EXTT1=
EXTT2=
EXTT3=
EXTT4=
EXTT5=
EXTT6=
EXTT7=
EXTT8=
EXTT9=
EXTT10=
EXTT11=
EXTT12=
EXTT13=
EXTT14=
PLAYORDER=
